<svg xmlns="http://www.w3.org/2000/svg" enable-background="new 0 0 24 24" viewBox="0 0 24 24" id="tesla"><path fill="#C70B01" d="M12,0C8.472,0.015,4.375,0.609,0,2.35c0,0,0.196,0.524,0.672,1.396C4.674,1.989,8.585,1.436,12,1.46v0.003c3.415-0.03,7.327,0.528,11.328,2.28C23.863,2.775,24,2.347,24,2.347C19.625,0.613,15.528,0.015,12,0L12,0z"></path><path fill="#C70B01" d="M8.619,5.034L12,24l3.361-18.961c3.199,0,4.208,0.35,4.354,1.79c0,0,2.15-0.803,3.232-2.438c-4.227-1.965-8.472-2.055-8.472-2.055L12,5.362v0.002h-0.004L12,5.362L9.526,2.34c0,0-4.245,0.091-8.471,2.057c1.083,1.635,3.23,2.43,3.23,2.43C4.431,5.388,5.439,5.034,8.619,5.034L8.619,5.034z"></path><path fill="#AD0A01" d="M12,0C8.472,0.015,4.375,0.609,0,2.35l0,0c0,0,0.196,0.524,0.672,1.396c3.92-1.72,7.753-2.286,11.118-2.286c0.07,0,0.14,0,0.21,0.001v0.003l0,0V0L12,0L12,0z"></path><path fill="#AD0A01" d="M9.526,2.34c0,0-4.245,0.091-8.471,2.057c1.083,1.635,3.23,2.43,3.23,2.43c0.146-1.439,1.155-1.792,4.335-1.792L12,24V5.362v0.002h-0.004L12,5.362L9.526,2.34L9.526,2.34z"></path></svg>